<?xml version="1.0" encoding="utf-8"?>
<!-- Generator: Adobe Illustrator 22.1.0, SVG Export Plug-In . SVG Version: 6.00 Build 0)  -->
<svg version="1.1" id="Layer_1" xmlns="http://www.w3.org/2000/svg" xmlns:xlink="http://www.w3.org/1999/xlink" x="0px" y="0px"
	 viewBox="0 0 792 612" style="enable-background:new 0 0 792 612;" xml:space="preserve">
<style type="text/css">
	.st0{fill:none;}
	.st1{fill:#231F20;}
	.st2{fill:#FFFFFF;}
</style>
<g id="Layer_1_1_">
</g>
<g>
	<path class="st0" d="M328.1,194.6c-1.2,2.3-3.1,4.4-5.2,5.2c-1.1,0.4-2,0.9-2.7,1.5c0.7-0.5,1.6-1,2.8-1.4
		C325.1,199.1,327,196.9,328.1,194.6z"/>
	<path class="st0" d="M214.1,352.7c2.2-3.9,4.4-7.8,6.7-11.7c0.1-0.2,0.3-0.5,0.4-0.7c-0.1,0.1-0.2,0.2-0.2,0.4l-6.7,11.7
		c-2,3.1-3.9,6.5-5.8,9.7c-0.1,0.1-0.2,0.3-0.2,0.4c0,0,0-0.1,0.1-0.1C210.2,359.3,212.2,356,214.1,352.7z"/>
	<path class="st0" d="M298.4,228.5c-1.1,3.8-2.9,7.4-4.6,10.8c-0.7,1.8-1.5,3.6-2.1,5.3c0.7-1.5,1.5-2.9,2.2-4.1
		C295.5,236.5,297.3,232.6,298.4,228.5z"/>
	<path class="st0" d="M336.3,159.9c-0.6,0.7-1.2,1.3-1.8,1.9c-3.1,3.1-4.8,6.6-5.2,10.6c0.6-3.7,2.2-7.1,5.1-10.4
		C335,161.3,335.7,160.6,336.3,159.9z"/>
	<path class="st0" d="M302.5,212.6c0.8-0.3,2.2-0.3,3.6,0c0.8,0.3,1.4,0.3,1.9,0.3c1.8,0,6.7,0.2,8.9-4.1c-2.4,4-7,4-9,4l-0.2,0
		c-0.3,0-0.7-0.1-1.1-0.1c-0.3-0.1-0.6-0.1-0.9-0.1c-1.4-0.3-2.7-0.3-3.5,0c-1.1,0.5-2.6,1.8-3,2.4c0,0,0,0.1,0,0.1
		C300,214.3,301.3,213.1,302.5,212.6z"/>
	<path class="st0" d="M253.6,314.9c0.2-0.3,0.3-0.6,0.5-0.9c-0.1,0.2-0.2,0.4-0.3,0.6c-5.1,9-12.5,15.1-22.2,18.3
		c-3.3,1-5.8,2.4-7.8,4.3c2-1.8,4.6-3.2,7.9-4.2C241.1,329.9,248.6,323.8,253.6,314.9z"/>
	<path class="st0" d="M382.9,249.6c-0.2-0.5-0.4-0.9-0.4-1.4c-1.2-7.6-5-13.5-9.2-18.9c4.1,5.6,7.9,11.5,9.1,18.9
		C382.5,248.6,382.7,249.1,382.9,249.6z"/>
	<path class="st0" d="M280,272c-0.2,0.2-0.3,0.4-0.5,0.7c-0.1,0.2-0.3,0.4-0.4,0.6c0.1-0.1,0.2-0.3,0.3-0.4
		C279.6,272.6,279.8,272.3,280,272z"/>
	<path class="st0" d="M260.9,301.3c-0.1,0.2-0.2,0.3-0.3,0.5c-0.2,0.4-0.4,0.8-0.6,1.2c0.2-0.3,0.3-0.6,0.5-0.9
		C260.7,301.8,260.8,301.6,260.9,301.3z"/>
	<path class="st0" d="M275.2,278.2c0.6-0.8,1.3-1.5,1.9-2.3c-0.2,0.3-0.5,0.5-0.7,0.8c-0.4,0.4-0.8,0.9-1.1,1.3
		c-1.9,2.2-3.9,4.4-5.2,6.9c-0.8,1.3-1.6,2.7-2.3,4c0.7-1.2,1.4-2.5,2.2-3.7C271.4,282.6,273.3,280.4,275.2,278.2z"/>
	<path class="st0" d="M348,146.5c0.1-0.2,0.4-0.3,0.7-0.5c-0.3,0.1-0.6,0.2-0.6,0.3c-1.2,1.4-2.5,2.8-3.7,4.3
		c-1.2,1.4-2.5,2.9-3.8,4.3c-0.6,0.7-1.2,1.4-1.8,2.1c-0.5,0.5-0.9,1.1-1.4,1.6c1.1-1.2,2.1-2.4,3.1-3.6
		C343,152.3,345.5,149.3,348,146.5z"/>
	<path class="st0" d="M286.6,258.4c1-2.3,1.9-4.8,2.7-7.3C288.5,253.5,287.6,256,286.6,258.4z"/>
	<path class="st0" d="M392.4,275.7c-2.9-4.2-5.9-8-9.4-12.2c-3.7-4-8.3-9.6-10.4-18c-0.7-2.9-2.2-5.8-4.4-9l-0.8-1.1
		c-3.3-5.2-6.7-10.6-10-15.3c-0.8-1-1.6-2.1-2.6-3.1c-4.3,6.7-6.4,18.5-4.3,25.2v0c3.1,10,1.8,18.2-4,25.7c-2.8,3.1-5,6.7-7.2,10.2
		l-0.6,0.9l-1.3,2.6c1.4,0.1,2.9,0.3,4.3,0.5c1.6,0.2,3.3,0.4,5,0.6c9.4,1.1,18.7,2,27.7,2.8c6,0.5,12.1-1.2,20.9-5.8
		c-0.4-0.6-0.9-1.2-1.3-1.8C393.5,277.2,392.9,276.4,392.4,275.7z"/>
	<path class="st0" d="M403.5,283.1c-0.1,0.2-0.2,0.5-0.3,0.7c0.1-0.3,0.3-0.6,0.4-0.9c0.5-1.5,0.5-3.4-0.8-5.9
		C404.4,280.2,403.8,282.4,403.5,283.1z"/>
	<path class="st0" d="M350.6,145.8c-0.4-0.1-0.9,0-1.3,0C349.8,145.8,350.2,145.8,350.6,145.8z"/>
	<path class="st0" d="M485.3,308.5c9.9,2.1,19,4,28.2,5.9C504,312.1,494,310.2,485.3,308.5z"/>
	<path class="st0" d="M473.1,300.4C473.1,300.4,473.1,300.4,473.1,300.4c-0.1,0-0.2-0.1-0.3-0.1c-1.4,0-2.7-0.1-3.9-0.3
		C470.2,300.4,471.6,300.5,473.1,300.4z"/>
	<path class="st1" d="M670.3,400.5c-0.3-0.3-0.6-0.6-0.8-0.9c-0.8-0.9-1.7-1.8-2.7-2.4c-25.3-15.2-50.7-30.3-75.3-45
		c-22.7-13.5-44.5-26.6-64.5-38.6c-0.4-0.3-0.9-0.6-1.4-0.8c-0.5-0.3-1-0.6-1.4-0.9c-2.8-1.9-5.8-3.8-9-4.7
		c-4.9-1.4-10-2.4-14.9-3.4l-2.6-0.5c-1.8-0.4-3.7-0.8-5.6-1.1c-1.8-0.3-3.8-0.7-5.6-1.1c-1.2-0.3-2.4-1.2-3.5-2
		c-0.2-0.1-0.3-0.3-0.5-0.4c-0.2-0.2-0.5-0.3-0.6-0.5c-0.8-0.5-1.6-1.1-2.5-1.9c-1.9-1.6-3.7-3.2-6-3.2c-5.6-0.3-9-3-10.8-8.4
		l-0.5-1.4l-0.5-1.7c-1.6-5.4-3.2-11-3.2-16.6c-0.3-12.2-4.3-23.7-12.4-35.3c-0.4-0.7-0.9-1.3-1.4-1.9c-0.5-0.6-1-1.3-1.4-2
		c-0.4-0.6-0.8-1.2-1.3-1.8c-2.9-4-5.6-7.9-7.1-12.8c-0.5-2.1-1.8-3.6-3.5-5.3c-0.6-0.6-1.2-1.2-1.5-2c-1.1-1.3-2-2.6-2.9-3.9
		c-0.3-0.4-0.6-0.8-0.9-1.3c-3.6-5-7.6-10.1-11.4-15c-2.4-2.9-5.3-5.3-8.3-7.7c-1.1-0.8-2.1-1.3-3.2-1.9c-1.1-0.6-2.3-1.1-3.2-2
		c-2.7-2.7-5.5-5.5-8.3-8c-3.8-3.8-7.8-7.8-11.7-11.4c-8.1-7.3-17.3-12.2-27.3-14.6c-3.4-1-7.8-1.6-11.5,2.6l-1.4,1.9
		c-3.2,4-6.9,8.6-10.9,12.8c-6.5,7-9,14.2-7.9,22.4c0.3,2.5,0.3,5.1,0.3,7.8v2.5c0,2.7-0.9,4-3.6,5.2c-2.7,1.1-5.9,3.7-6.7,6.6
		c-1.2,4.5-2.6,5.4-7,4.5c-4-0.8-8,0.3-10.7,2.9c-2.1,2.1-2.9,4.7-2.4,7.6c1.4,8-1.4,14.5-4.5,21.4c-1.2,2.7-2.7,6.2-3.6,9.6
		c-2,6.8-4.2,14-7.5,20.1c-1.9,2.9-4,5.7-7,9l-0.2,0.3c-2.1,2.4-4.5,5.1-6.4,8c-3.9,6.5-7,12.1-9.4,16.9c-1.7,3.4-3.7,7.1-5.6,10.3
		c-4.3,7.5-10.3,12.5-18.3,15.2c-4.1,1.5-9.2,3.5-11.7,7c-0.7,1.1-1.4,2.1-2.1,3.2c-0.7,1-1.4,2.1-2.1,3.2
		c-8.6,13-17.4,26.4-19.1,43.4c-0.3,4.2-1.2,8.6-2,12.3c-0.1,0.5-0.2,1.1-0.3,1.6c-0.1,0.6-0.1,1.1-0.3,1.7c-0.5,2.8-0.8,5,0.2,6.2
		c1,1.2,3.1,1.5,6.3,1.5h15.8c5.2-0.1,10.1-0.2,14.8-0.2c7.5,0,14.4,0.2,21.1,0.5l2.8,0c10.7,0,17.8-4,22.9-12.8
		c2-3.5,4.4-6.8,6.7-10c0.8-1.2,1.7-2.4,2.5-3.6c4.1-5.7,8.3-11.6,11.6-18c7.6-14.6,15.4-19.5,31-19.2c14.6,0.5,31.2,0.1,52.2-1.1
		c9.7-0.6,19-2.2,26.1-3.6c1.6-0.3,3.2-0.6,4.8-0.8c1.6-0.3,3.2-0.5,4.7-0.8c3.9-0.6,6.2,0.4,8.8,3.5c3.1,4,6.1,8,9.2,12
		c6,7.9,12.2,16,18.3,23.8c3.3,4.3,6.7,8.7,10,13.1c3.3,4.4,6.7,8.8,10,13.1c2.1,2.8,4.4,4,7.9,4h184.5c1.6,0,3.2-0.5,4.8-1.1
		c0.5-0.3,1.3-0.5,2-0.6c0.5-0.2,0.7-0.4,0.7-0.6v-0.3l0.2-0.1c0.9-0.6,0.9-0.8,0.7-1.2L670.3,400.5z M656.2,399.1H619
		c-44.2,0-90,0-134.8,0c-1,0-1.9-0.1-2.8-0.3c-2.6-0.5-4.5-1.8-6.5-4.4c-8.5-11.2-17.2-22.8-25.8-33.6c-6.2-7.9-13.1-16.9-21.1-27.5
		c-1-1.4-2.4-2.9-4.6-3.6c-0.2-0.1-0.5-0.1-0.7-0.2c-0.1,0-0.1,0-0.2-0.1c-0.4-0.1-0.8-0.1-1.3-0.1c-0.6,0-1.1,0-1.7,0
		c-3.3,0.6-6.9,1.1-10.6,1.7c-9.2,1.7-18.9,3.1-28.3,3.6c-5.3,0.3-11.2,0.6-17.4,0.8c-10.6,0.4-22.4,0.7-34.2,0.2
		c-1.1,0-2.2-0.1-3.4-0.1c-14-0.5-24.7,4.8-30.8,16c-0.3,0.7-0.7,1.3-1,2c-0.4,0.9-0.9,1.8-1.3,2.7c-6,12.1-14.4,22.8-22.5,33.2
		c-0.3,0.4-0.6,0.7-0.9,1.1c-0.5,0.7-1.1,1.3-1.6,2c-0.2,0.2-0.4,0.5-0.6,0.8c-0.7,0.9-1.4,1.9-2.1,2.8c-0.8,1.4-3.1,2.8-4.4,2.8
		c-16.1,0.3-32.8,0.3-48.6,0.3h-10.6c-0.2,0-0.3,0-0.4-0.1c-0.3,0-0.9,0-1.5-0.3l-0.3-0.2l0.1-0.4c0.6-2.8,0.8-5.6,1.1-8.3
		c1.3-9.5,2.7-19.4,7.6-28.3c1.9-3.3,3.9-6.7,5.9-9.8l6.7-11.7c2.3-4,5.7-6.6,11.1-8.3c9.4-3.1,16.7-9.1,21.7-17.8
		c1.9-3.1,3.6-6.4,5.2-9.5c0.6-1.1,1.1-2.2,1.7-3.2c0.8-1.5,1.6-2.9,2.4-4.4c2.3-4.2,4.6-8.5,7.1-12.6c1.4-2.5,3.4-4.8,5.3-7
		c0.4-0.4,0.7-0.9,1.1-1.3c1.1-1.2,2.2-2.5,3-3.9c1.9-2.4,3.3-5.4,4.9-8.8l0.1-0.3c1.9-4.4,3.7-9.3,5.3-13.8c1-3.1,2.4-6.7,3.9-10.3
		c3.7-7.1,7.1-14.8,5.5-23.9l0-0.2l0.1-0.1c0.3-0.7,2.1-2.4,3.6-3c0.9-0.3,2.4-0.3,3.9,0c0.2,0,0.6,0.1,1,0.1
		c0.3,0.1,0.6,0.1,0.9,0.1l0.2,0c2.5,0,8.3,0,9.3-7.1c0.6-3,2.2-4.8,5.3-6c2.8-1,5.2-4.9,5.8-8c0.7-4.2,0.4-8.3,0.1-12.4
		c-0.1-0.8-0.1-1.5-0.1-2.3l0-0.3c-0.6-5.7,1.2-10.6,5.4-14.8c1.5-1.5,2.9-3.2,4.2-4.8c0.6-0.7,1.2-1.5,1.8-2.2
		c1.2-1.4,2.5-2.9,3.7-4.3c1.2-1.4,2.5-2.9,3.8-4.3c0.4-0.4,2.3-1,3.5-0.7c9.2,2,17.6,6.3,24.9,12.9c2.2,2.1,4.5,4.3,6.7,6.4
		c2.2,2.1,4.4,4.3,6.7,6.4l7.5,7.5c1.1,1.3,2.3,2.7,4.2,2.9c5,1.1,7.3,4.6,10,8.6l0.3,0.5c0.1,0.3,0.3,0.5,0.5,0.8
		c0.2,0.3,0.4,0.6,0.6,0.9c2.5,4.1,5.6,7.8,8.5,11.3c0.7,0.8,1.5,1.7,2.2,2.6c0.8,0.9,1.5,1.8,2.2,2.6l0.1,0.1
		c0.2,0.5,0.7,0.9,1.2,1.2l0.2,0.1c0.2,0.3,0.5,0.5,0.7,0.8c1,1.1,1.9,2.3,2.2,3.6c1.6,6.3,5.3,11,8.8,15.6c0.6,0.8,1.1,1.7,1.6,2.2
		c7.9,10.4,11.8,21.1,12.1,32.9c0.3,8.2,2.8,16.4,5,22.6c2.7,8,8.1,12.2,15.6,11.9c1,0,3.1,1.2,3.8,2.2l0.1,0.1
		c1.6,4.1,4.9,5.2,8.2,5.8c8.9,1.7,19.4,3.7,29.2,6.1c1.2,0.2,2.3,0.8,3.3,1.4c0.2,0.1,0.5,0.2,0.7,0.3
		c22.6,13.5,45.3,27.1,67.9,40.6c22.5,13.4,45,26.9,67.5,40.3c1.2,0.6,2,1.2,2.9,2l0.9,0.9L656.2,399.1
		C656.2,399,656.2,399,656.2,399.1z"/>
	<path d="M672.5,401.3l-1.5-1.5c-0.3-0.3-0.5-0.6-0.8-0.8c-0.9-0.9-1.8-1.9-2.9-2.6c-25.3-15.2-50.7-30.3-75.3-45
		c-22.7-13.5-44.5-26.6-64.5-38.6c-0.4-0.3-0.9-0.6-1.4-0.9c-0.5-0.3-1-0.5-1.3-0.8c-2.8-2-5.9-4-9.3-4.8c-5-1.4-10.1-2.4-15-3.4
		l-2.6-0.5c-1.8-0.4-3.7-0.8-5.6-1.1c-1.8-0.3-3.7-0.7-5.5-1.1c-1-0.3-2.1-1.1-3.1-1.8c-0.2-0.2-0.4-0.3-0.6-0.5
		c-0.2-0.1-0.4-0.3-0.5-0.4l-0.1-0.1c-0.8-0.6-1.6-1.1-2.4-1.9c-2-1.7-4-3.5-6.7-3.5c-5.1-0.3-8.3-2.7-9.8-7.7l-0.5-1.3l-0.5-1.6
		c-1.5-5.3-3.1-10.8-3.1-16.3c-0.3-12.4-4.4-24.1-12.6-35.8c-0.4-0.7-0.9-1.4-1.4-2c-0.5-0.6-1-1.2-1.4-1.9
		c-0.4-0.6-0.9-1.2-1.3-1.8c-2.8-4-5.5-7.7-7-12.5c-0.6-2.3-1.9-4-3.7-5.8c-0.5-0.5-1-1-1.3-1.7l-0.1-0.2c-1.1-1.3-2-2.6-3-4
		c-0.3-0.4-0.6-0.8-0.9-1.3c-3.6-5-7.6-10.1-11.4-15c-2.5-3-5.4-5.4-8.4-7.9c-1.1-0.9-2.3-1.4-3.4-2c-1.1-0.6-2.1-1.1-2.9-1.9
		c-2.7-2.7-5.6-5.6-8.3-8.1c-3.8-3.8-7.8-7.8-11.7-11.4c-8.2-7.4-17.6-12.4-27.7-14.8c-3.4-1-8.4-1.7-12.5,3L339,142
		c-3.2,4-6.9,8.5-10.8,12.8c-6.7,7.3-9.3,14.7-8.2,23.2c0.3,2.5,0.3,4.9,0.3,7.7v2.5c0,2.3-0.7,3.2-3,4.3c-2.9,1.2-6.4,4.1-7.2,7.3
		c-1.1,4-2,4.6-5.8,3.8c-4.4-0.9-8.7,0.3-11.6,3.2c-2.3,2.3-3.2,5.3-2.6,8.5c1.4,7.7-1.4,14.1-4.4,20.8c-1.2,2.7-2.8,6.3-3.6,9.8
		c-2,6.8-4.2,13.9-7.4,19.9c-1.8,2.9-3.9,5.6-6.9,8.8l-0.2,0.3c-2.1,2.4-4.6,5.1-6.5,8.1c-3.9,6.6-7,12.1-9.5,17
		c-1.7,3.4-3.7,7-5.5,10.3c-4.2,7.3-10,12.1-17.8,14.8c-4.2,1.6-9.5,3.6-12.2,7.4c-0.7,1.1-1.4,2.1-2.1,3.2c-0.7,1-1.4,2.1-2.1,3.2
		c-8.2,12.5-17.6,26.6-19.3,43.9c-0.3,4.2-1.1,8.5-1.9,12.1c-0.1,0.6-0.2,1.2-0.3,1.7c-0.1,0.6-0.1,1.1-0.3,1.6
		c-0.6,3.1-0.9,5.5,0.4,7.1c1.2,1.6,3.5,1.9,7.1,1.9h15.9c13.3-0.3,25-0.2,35.8,0.3h2.8c11.1,0,18.5-4.1,23.8-13.3
		c2-3.4,4.4-6.8,6.6-10c0.9-1.2,1.7-2.4,2.5-3.6c4.1-5.8,8.4-11.7,11.7-18.1c7.5-14.4,14.8-18.9,30.1-18.6
		c14.6,0.5,31.3,0.1,52.3-1.1c9.8-0.6,19.1-2.3,26.2-3.6c1.5-0.3,3.2-0.6,4.8-0.8c1.6-0.3,3.2-0.6,4.7-0.8c3.5-0.5,5.5,0.3,7.9,3.1
		c3.1,4,6.1,8,9.2,12c6,7.9,12.2,16,18.3,23.8c3.3,4.3,6.7,8.7,10,13.1c3.3,4.4,6.7,8.8,10,13.1c2.2,3.1,4.8,4.4,8.7,4.4h184.5
		c1.7,0,3.5-0.6,5.2-1.2c0.6-0.3,1.3-0.5,1.7-0.5l0.1,0l0.1-0.1c0.5-0.3,1.2-0.6,1.4-1.3C673.1,402.9,672.8,402,672.5,401.3z
		 M671,403.1l-0.2,0.1v0.3c0,0.2-0.3,0.4-0.7,0.6c-0.6,0-1.5,0.3-2,0.6c-1.7,0.6-3.3,1.1-4.8,1.1H478.6c-3.6,0-5.9-1.1-7.9-4
		c-3.3-4.3-6.7-8.7-10-13.1c-3.3-4.4-6.7-8.8-10-13.1c-6.1-7.8-12.3-15.9-18.3-23.8c-3.1-4-6.1-8-9.2-12c-2.6-3.2-5-4.1-8.8-3.5
		c-1.5,0.3-3.1,0.5-4.7,0.8c-1.6,0.3-3.2,0.6-4.8,0.8c-7,1.4-16.3,3-26.1,3.6c-21,1.3-37.6,1.6-52.2,1.1c-15.6-0.3-23.4,4.6-31,19.2
		c-3.3,6.4-7.5,12.3-11.6,18c-0.8,1.2-1.7,2.4-2.5,3.6c-2.3,3.2-4.6,6.6-6.7,10c-5.1,8.9-12.2,12.8-22.9,12.8l-2.8,0
		c-6.6-0.3-13.6-0.5-21.1-0.5c-4.7,0-9.6,0.1-14.8,0.2h-15.8c-3.1,0-5.3-0.2-6.3-1.5c-1-1.2-0.7-3.5-0.2-6.2
		c0.1-0.6,0.2-1.2,0.3-1.7c0.1-0.6,0.1-1.1,0.3-1.6c0.8-3.7,1.7-8,2-12.3c1.7-17,10.5-30.4,19.1-43.4c0.7-1.1,1.4-2.1,2.1-3.2
		c0.7-1,1.4-2.1,2.1-3.2c2.5-3.6,7.6-5.5,11.7-7c8-2.8,14-7.7,18.3-15.2c1.9-3.2,3.9-6.9,5.6-10.3c2.4-4.9,5.5-10.4,9.4-16.9
		c1.9-2.9,4.3-5.6,6.4-8l0.2-0.3c3-3.3,5.1-6.1,7-9c3.3-6.1,5.6-13.3,7.5-20.1c0.9-3.5,2.4-7,3.6-9.6c3-6.9,5.9-13.4,4.5-21.4
		c-0.5-2.9,0.3-5.5,2.4-7.6c2.6-2.6,6.6-3.7,10.7-2.9c4.3,0.9,5.8-0.1,7-4.5c0.8-2.9,4-5.6,6.7-6.6c2.7-1.2,3.6-2.5,3.6-5.2v-2.5
		c0-2.7,0-5.3-0.3-7.8c-1.1-8.2,1.4-15.3,7.9-22.4c4-4.2,7.7-8.8,10.9-12.8l1.4-1.9c3.6-4.2,8-3.6,11.5-2.6
		c10,2.4,19.2,7.4,27.3,14.6c3.9,3.6,7.8,7.6,11.7,11.4c2.8,2.5,5.6,5.3,8.3,8c0.9,0.9,2.1,1.5,3.2,2c1.1,0.6,2.2,1.1,3.2,1.9
		c3,2.4,5.9,4.8,8.3,7.7c3.8,4.9,7.8,10,11.4,15c0.3,0.4,0.6,0.9,0.9,1.3c1,1.4,1.9,2.7,2.9,3.9c0.3,0.9,0.9,1.5,1.5,2
		c1.7,1.7,3,3.3,3.5,5.3c1.5,4.9,4.2,8.7,7.1,12.8c0.4,0.6,0.9,1.2,1.3,1.8c0.4,0.7,0.9,1.4,1.4,2c0.5,0.6,1,1.2,1.4,1.9
		c8.1,11.6,12.1,23.1,12.4,35.3c0,5.6,1.6,11.2,3.2,16.6l0.5,1.7l0.5,1.4c1.7,5.4,5.1,8.1,10.8,8.4c2.3,0,4.1,1.6,6,3.2
		c0.9,0.9,1.7,1.4,2.5,1.9c0.2,0.2,0.4,0.3,0.6,0.5c0.2,0.1,0.4,0.3,0.5,0.4c1.1,0.8,2.3,1.7,3.5,2c1.8,0.4,3.7,0.8,5.6,1.1
		c1.8,0.3,3.7,0.7,5.6,1.1l2.6,0.5c4.9,1,10,2,14.9,3.4c3.2,0.8,6.2,2.7,9,4.7c0.4,0.3,0.9,0.6,1.4,0.9c0.5,0.3,1,0.5,1.4,0.8
		c20,12,41.9,25.1,64.5,38.6c24.6,14.7,50,29.9,75.3,45c1,0.6,1.8,1.5,2.7,2.4c0.3,0.3,0.6,0.6,0.8,0.9l1.3,1.3
		C671.8,402.3,671.9,402.5,671,403.1z"/>
	<path d="M475.6,394.6c-8.6-11.1-17.2-22.5-25.8-33.6c-6.9-9.2-14.2-18.3-21.1-27.5c-1.3-1.5-2.9-3.2-5.3-3.8
		c2.2,0.7,3.6,2.2,4.6,3.6c8,10.6,14.9,19.6,21.1,27.5c8.6,10.8,17.4,22.4,25.8,33.6c2,2.7,3.9,4,6.5,4.4
		C479.1,398.3,477.4,397.1,475.6,394.6z"/>
	<path d="M656.3,398.2c-0.8-0.8-1.7-1.4-2.9-2c-22.4-13.4-45-26.9-67.5-40.3c-22.6-13.5-45.3-27-67.9-40.6c-0.2-0.1-0.4-0.2-0.7-0.3
		c-1-0.5-2.2-1.1-3.3-1.4c-9.8-2.4-20.3-4.4-29.2-6.1c-3.4-0.6-6.7-1.6-8.2-5.8l-0.1-0.1c-0.6-1-2.7-2.2-3.8-2.2
		c-7.5,0.3-12.9-3.8-15.6-11.9c-2.2-6.2-4.7-14.5-5-22.6c-0.3-11.7-4.2-22.5-12.1-32.9c-0.5-0.5-1.1-1.3-1.6-2.2
		c-3.5-4.6-7.2-9.4-8.8-15.6c-0.2-1.2-1.2-2.4-2.2-3.6c-0.2-0.3-0.5-0.5-0.7-0.8l-0.2-0.1c-0.5-0.2-0.9-0.7-1.2-1.2l-0.1-0.1
		c-0.7-0.8-1.5-1.7-2.2-2.6c-0.8-0.9-1.5-1.8-2.2-2.6c-3-3.5-6.1-7.2-8.5-11.3c-0.2-0.3-0.4-0.6-0.6-0.9c-0.2-0.3-0.4-0.5-0.5-0.8
		l-0.3-0.5c-2.7-4-5-7.5-10-8.6c-1.8-0.3-3.1-1.6-4.2-2.9l-7.5-7.5c-2.2-2.1-4.5-4.3-6.7-6.4c-2.2-2.1-4.4-4.3-6.7-6.4
		c-7.4-6.5-15.8-10.9-24.9-12.9c-1.2-0.3-3.1,0.3-3.5,0.7c-1.3,1.4-2.5,2.9-3.8,4.3c-1.2,1.4-2.5,2.9-3.7,4.3
		c-0.6,0.7-1.2,1.4-1.8,2.2c-1.3,1.6-2.7,3.3-4.2,4.8c-4.2,4.2-6,9.1-5.4,14.8l0,0.3c0,0.7,0.1,1.5,0.1,2.3c0.3,4,0.6,8.2-0.1,12.4
		c-0.6,3-3,6.9-5.8,8c-3.1,1.1-4.7,2.9-5.3,6c-1,7.1-6.8,7.1-9.3,7.1l-0.2,0c-0.2,0-0.6-0.1-0.9-0.1c-0.4-0.1-0.8-0.2-1-0.1
		c-1.5-0.3-3-0.3-3.9,0c-1.5,0.6-3.3,2.3-3.6,3l-0.1,0.1l0,0.2c1.6,9.1-1.8,16.8-5.5,23.9c-1.5,3.7-2.9,7.2-3.9,10.3
		c-1.5,4.6-3.4,9.5-5.3,13.8l-0.1,0.3c-1.6,3.4-3,6.4-4.9,8.8c-0.8,1.4-1.9,2.7-3,3.9c-0.4,0.4-0.8,0.9-1.1,1.3
		c-1.9,2.2-3.9,4.5-5.3,7c-2.5,4.1-4.8,8.4-7.1,12.6c-0.8,1.5-1.6,2.9-2.4,4.4c-0.6,1.1-1.1,2.2-1.7,3.2c-1.7,3.2-3.4,6.4-5.2,9.5
		c-4.9,8.8-12.2,14.8-21.7,17.8c-5.4,1.7-8.8,4.3-11.1,8.3l-6.7,11.7c-1.9,3.1-3.9,6.5-5.9,9.8c-4.9,8.9-6.2,18.7-7.6,28.3
		c-0.3,2.7-0.6,5.5-1.1,8.3l-0.1,0.4l0.3,0.2c0.6,0.3,1.1,0.3,1.5,0.3c-0.3-0.1-0.6-0.2-1-0.2c0.3-2.8,0.8-5.6,1.1-8.3
		c1.4-10,2.5-19.4,7.4-27.9c0.1-0.1,0.2-0.3,0.2-0.4c1.9-3.3,3.9-6.7,5.8-9.7l6.7-11.7c0.1-0.1,0.2-0.3,0.2-0.4
		c0.5-0.8,1-1.5,1.6-2.2c0.2-0.2,0.4-0.4,0.6-0.6c0.1-0.1,0.2-0.2,0.4-0.4c2-1.9,4.5-3.3,7.8-4.3c9.7-3.1,17.2-9.3,22.2-18.3
		c0.1-0.2,0.2-0.4,0.3-0.6c2.1-3.8,4.1-7.4,6-11c0.2-0.4,0.4-0.8,0.6-1.2c0.1-0.2,0.2-0.3,0.3-0.5c2.2-4.3,4.5-8.4,6.9-12.5
		c0.8-1.3,1.5-2.7,2.3-4c1.4-2.5,3.3-4.7,5.2-6.9c0.4-0.4,0.7-0.9,1.1-1.3c0.2-0.3,0.5-0.5,0.7-0.8c0.7-0.8,1.3-1.7,2-2.6
		c0.1-0.2,0.3-0.4,0.4-0.6c0.2-0.2,0.3-0.4,0.5-0.7c1.5-2.3,3-5.1,4.4-8.3c0.7-1.7,1.4-3.5,2.2-5.3c1-2.4,1.9-4.9,2.7-7.3
		c0.1-0.4,0.3-0.8,0.4-1.3c0.4-1.8,1.1-3.6,1.9-5.3c0.7-1.7,1.4-3.5,2.1-5.3c1.8-3.4,3.5-7,4.6-10.8c1.1-4.1,1.6-8.4,0.8-13.1
		c0-0.1,0.1-0.2,0.3-0.4c0,0,0-0.1,0-0.1c0.4-0.6,1.8-1.9,3-2.4c0.7-0.2,2.1-0.2,3.5,0c0.2,0,0.6,0.1,0.9,0.1
		c0.4,0.1,0.7,0.1,1.1,0.1l0.2,0c2,0,6.6,0,9-4c0.5-0.9,0.9-2,1.1-3.4c0.2-1.8,0.9-3.2,2.2-4.2c0.7-0.6,1.6-1.1,2.7-1.5
		c2.1-0.8,4-2.9,5.2-5.2c0.5-1,0.9-2.1,1-3.1c0.8-4.7,0.3-9.7,0-14.7v-0.3c-0.1-1.4,0-2.8,0.2-4.1c0.3-4,2-7.5,5.2-10.6
		c0.6-0.6,1.2-1.3,1.8-1.9c0.4-0.4,0.7-0.8,1.1-1.2c0.5-0.5,0.9-1.1,1.4-1.6c0.6-0.7,1.2-1.5,1.8-2.1c1.3-1.4,2.5-2.9,3.8-4.3
		c1.2-1.4,2.5-2.9,3.7-4.3c0.1-0.1,0.3-0.2,0.6-0.3c0.1,0,0.3-0.1,0.4-0.1c0,0,0,0,0,0c0.1,0,0.1,0,0.2,0c0.4-0.1,0.9-0.1,1.3,0
		c0.2,0,0.3,0,0.5,0.1c8.9,1.7,17.2,6.1,24.7,12.8c4.7,3.9,9.2,8.6,13.3,12.8c2.2,2.2,4.4,4.4,6.7,6.7c0.3,0.3,0.6,0.6,0.8,0.8
		c1.4,1.1,2.5,2.8,4.4,3.1c5.3,1.1,7.5,4.7,10,8.9c0.3,0.6,0.8,1.1,1.1,1.7c2.5,4.2,5.6,7.8,8.6,11.4c1.4,1.7,3.1,3.3,4.4,5.3
		c0.6,0.3,0.8,0.8,1.4,1.4c1.1,1.4,2.5,2.8,2.8,4.2c1.7,6.4,5.3,11.1,8.9,15.8c0.6,0.6,1.1,1.4,1.7,2.2
		c7.8,10.6,11.7,21.1,11.9,32.5c0.3,7.8,2.5,15.6,5,22.8c2.2,6.7,6.3,10.7,11.9,11.9c1.2,0.2,2.6,0.3,3.9,0.3c0.1,0,0.2,0,0.3,0.1
		c1.1,0,3,1.1,3.3,1.9c1.7,4.4,5.3,5.6,8.6,6.1c0.1,0,0.2,0,0.3,0.1c8.7,1.6,18.7,3.6,28.2,5.9c0.3,0.1,0.5,0.1,0.8,0.2
		c1.4,0.3,2.8,1.1,3.9,1.7c45.3,27,90.3,53.9,135.3,80.9c0.8,0.5,1.9,1.3,2.7,1.9h1L656.3,398.2z"/>
	<path d="M328.9,335.6c11.8,0.5,23.6,0.3,34.2-0.2C352.5,335.8,340.8,335.9,328.9,335.6z"/>
	<path d="M267.4,392.4c0.5-0.7,1.1-1.3,1.6-2c-0.8,0.9-1.5,1.8-2.2,2.8C267,392.9,267.2,392.7,267.4,392.4z"/>
	<path d="M292.4,356.1c0.5-0.9,0.9-1.8,1.3-2.7c0.3-0.7,0.7-1.4,1-2c-0.4,0.8-0.8,1.5-1.2,2.4C293.2,354.6,292.8,355.3,292.4,356.1z
		"/>
	<path class="st2" d="M518.1,316.3c-1.1-0.6-2.5-1.4-3.9-1.7c-0.3-0.1-0.5-0.1-0.8-0.2c-9.1-1.9-18.2-3.8-28.2-5.9
		c-0.1,0-0.2,0-0.3-0.1c-3.3-0.6-6.9-1.7-8.6-6.1c-0.3-0.8-2.1-1.9-3.3-1.9c0,0,0,0-0.1,0c-1.5,0.1-2.9-0.1-4.2-0.3
		c-5.6-1.1-9.6-5.2-11.9-11.9c-2.5-7.2-4.7-15-5-22.8c-0.3-11.4-4.2-22-11.9-32.5c-0.6-0.8-1.1-1.7-1.7-2.2
		c-3.6-4.7-7.2-9.4-8.9-15.8c-0.3-1.4-1.7-2.8-2.8-4.2c-0.6-0.6-0.8-1.1-1.4-1.4c-1.4-1.9-3.1-3.6-4.4-5.3
		c-3.1-3.6-6.1-7.2-8.6-11.4c-0.3-0.6-0.8-1.1-1.1-1.7c-2.5-4.2-4.7-7.8-10-8.9c-1.9-0.3-3.1-1.9-4.4-3.1c-0.3-0.3-0.6-0.6-0.8-0.8
		c-2.2-2.2-4.4-4.4-6.7-6.7c-4.2-4.2-8.6-8.9-13.3-12.8c-7.5-6.7-15.8-11.1-24.7-12.8c-0.1,0-0.3-0.1-0.5-0.1c-0.4,0-0.9,0-1.3,0
		c-0.1,0-0.1,0-0.2,0c0,0,0,0,0,0c-0.1,0-0.3,0.1-0.4,0.1c-0.3,0.1-0.6,0.3-0.7,0.5c-2.5,2.8-5,5.8-7.5,8.6c-1,1.1-2.1,2.3-3.1,3.6
		c-0.4,0.4-0.7,0.8-1.1,1.2c-0.6,0.7-1.3,1.5-1.9,2.1c-2.9,3.3-4.5,6.7-5.1,10.4c-0.2,1.3-0.3,2.7-0.2,4.1v0.3c0.3,5,0.8,10,0,14.7
		c-0.2,1-0.5,2-1,3.1c-1.1,2.3-3,4.5-5.1,5.3c-1.2,0.4-2.1,0.8-2.8,1.4c-1.4,1-2,2.4-2.2,4.2c-0.2,1.4-0.6,2.5-1.1,3.4
		c-2.3,4.3-7.1,4.1-8.9,4.1c-0.6,0-1.1,0-1.9-0.3c-1.4-0.3-2.8-0.3-3.6,0c-1.2,0.5-2.5,1.7-3.1,2.4c-0.1,0.1-0.2,0.3-0.3,0.4
		c0.8,4.7,0.4,9-0.8,13.1c-1.1,4.1-2.9,8-4.5,11.9c-0.8,1.3-1.5,2.7-2.2,4.1c-0.8,1.7-1.5,3.5-1.9,5.3c-0.1,0.4-0.3,0.9-0.4,1.3
		c-0.8,2.5-1.7,5-2.7,7.3c-0.8,1.9-1.5,3.6-2.2,5.3c-1.5,3.2-3,5.9-4.4,8.3c-0.2,0.3-0.4,0.6-0.6,0.9c-0.1,0.1-0.2,0.3-0.3,0.4
		c-0.7,0.9-1.3,1.8-2,2.6c-0.6,0.8-1.3,1.6-1.9,2.3c-1.9,2.2-3.9,4.4-5.3,6.9c-0.7,1.2-1.5,2.5-2.2,3.7c-2.4,4.1-4.6,8.2-6.9,12.5
		c-0.1,0.3-0.3,0.5-0.4,0.8c-0.2,0.3-0.3,0.6-0.5,0.9c-1.9,3.6-3.9,7.2-6,11c-0.2,0.3-0.3,0.6-0.5,0.9c-5,8.9-12.5,15-22,18.1
		c-3.3,1-5.9,2.4-7.9,4.2c-0.1,0.1-0.2,0.2-0.4,0.4c-0.2,0.2-0.4,0.4-0.6,0.6c-0.6,0.7-1.1,1.4-1.6,2.2c-0.1,0.2-0.3,0.4-0.4,0.7
		c-2.2,3.9-4.4,7.8-6.7,11.7c-1.9,3.3-3.9,6.7-5.8,9.7c0,0,0,0.1-0.1,0.1c-4.9,8.6-6,18-7.4,27.9c-0.3,2.8-0.8,5.6-1.1,8.3
		c0.4,0,0.7,0.1,1,0.2c0.1,0,0.3,0.1,0.4,0.1h10.6c15.8,0,32.5,0,48.6-0.3c1.4,0,3.6-1.4,4.4-2.8c0.7-0.9,1.4-1.9,2.1-2.8
		c0.7-0.9,1.4-1.8,2.2-2.8c0.3-0.4,0.6-0.7,0.9-1.1c8.1-10.4,16.4-21.1,22.5-33.2c0.4-0.8,0.8-1.6,1.1-2.4c0.4-0.8,0.8-1.6,1.2-2.4
		c6.1-11.2,16.7-16.5,30.8-16c1.1,0,2.2,0.1,3.4,0.1c11.9,0.4,23.6,0.2,34.2-0.2c6.3-0.2,12.2-0.5,17.4-0.8
		c9.4-0.6,19.2-1.9,28.3-3.6c3.6-0.6,7.2-1.1,10.6-1.7c0.6,0,1.1,0,1.7,0c0.4,0,0.9,0,1.3,0.1c0.1,0,0.2,0,0.2,0.1
		c0.2,0,0.5,0.1,0.7,0.2c2.4,0.7,4,2.3,5.3,3.8c6.9,9.2,14.2,18.3,21.1,27.5c8.6,11.1,17.2,22.5,25.8,33.6c1.8,2.5,3.5,3.7,5.8,4.2
		c0.8,0.2,1.7,0.3,2.8,0.3c44.7,0,90.6,0,134.8,0h37.2c0,0-0.1,0-0.1-0.1c-0.8-0.6-1.9-1.4-2.7-1.9
		C608.4,370.2,563.4,343.2,518.1,316.3z M403.6,282.9c-0.1,0.3-0.3,0.6-0.4,0.9c-1,2-2.7,3.6-5.3,4.6c-4,1.6-8.2,3-12.3,4.3
		c-1,0.3-2,0.7-3,1c-0.4,0.1-0.9,0.2-1.3,0.4c-1.6,0.5-3.3,0.9-5,1.6l-0.1,0h-0.6c-0.9,0-1.7-0.5-2.1-1.4l-0.1-0.2
		c-0.4-0.1-0.7-0.1-1.2-0.1l-5.9-0.8c-9.9-2.3-19.4-2.9-30.2-1.7l0,0c-3.5,0.3-6.4-0.6-8.5-2.6c-1.7-2.3-1.7-5.1-0.1-8.6
		c2.9-5.8,6.7-11.8,11.4-18.2c4-5.1,4.9-10.4,2.7-16.8c-4.3-12.5,0.7-23.8,4.7-32.9c1.6-3.9,4.3-4.8,5.4-5c1.5-0.5,4.2-0.5,7.9,2.6
		l0.3,0.3c1.3,1,2.6,2.1,3.2,3.5c2.2,4.7,5.3,8.9,8.3,12.9c0.6,0.8,1.2,1.6,1.8,2.5c4.1,5.5,8,11.3,9.2,18.9
		c0.1,0.5,0.2,0.9,0.4,1.4c0.7,1.4,1.8,2.8,3,4.1c0.4,0.6,0.8,1.1,1.3,1.5c0.4,0.5,0.8,1,1.3,1.6c0.7,1,1.5,2,2.2,3.1
		c0.8,1,1.5,2.1,2.2,3.1c0.8,1.1,1.6,2.2,2.5,3.3c2.3,3,4.7,6.2,6.7,9.5c0.3,0.5,0.5,0.9,0.7,1.3
		C404.2,279.5,404.1,281.4,403.6,282.9z"/>
	<path class="st1" d="M394.6,266.8c-0.8-1.1-1.7-2.2-2.5-3.4c-0.7-1-1.5-2-2.2-3c-0.8-1-1.5-2.1-2.2-3.1c-0.4-0.5-0.8-1-1.2-1.5
		c-0.4-0.5-0.8-1-1.3-1.6c-1.7-1.9-3.4-4-3.7-6.1c-1.4-8.2-6.1-14.7-10.7-20.9c-3-4.1-6.1-8.4-8.4-13.1c-0.5-1.2-1.7-2.2-2.9-3.1
		l-0.3-0.3c-3.3-2.8-5.6-2.8-7-2.4c-1,0.2-3.3,1-4.7,4.4c-4.1,9.4-8.8,20-4.7,32.2c2.3,6.6,1.4,12.4-2.9,17.7
		c-4.7,6.3-8.5,12.2-11.3,18c-1.4,3.2-1.5,5.6,0,7.5c1.8,1.8,4.4,2.6,7.6,2.3c10.9-1.2,20.5-0.7,30.5,1.7l5.8,0.8
		c0.5,0,1.2,0,1.8,0.3l0.3,0.1v0.5c0.2,0.3,0.5,0.7,1.2,0.7h0.5c1.7-0.6,3.5-1.1,5-1.6c0.4-0.1,0.9-0.2,1.3-0.4c1-0.3,2-0.7,3-1
		c4.1-1.3,8.2-2.7,12.2-4.3c2.6-1,4.2-2.6,5-4.7c0.3-0.6,0.9-3-1.3-6.5C399.2,273,396.9,269.9,394.6,266.8z M396.4,280.3
		c-8.2,4.4-14.1,6.3-19.8,6.3c-0.7,0-1.5,0-2.2-0.1c-9.1-0.8-18.4-1.7-27.8-2.8c-1.7-0.1-3.4-0.4-5-0.6c-1.6-0.2-3.3-0.4-5-0.6
		l-0.7-0.1l2-4l0.6-0.9c2.2-3.6,4.5-7.3,7.3-10.3c5.5-7.2,6.7-15.1,3.8-24.8c-2.2-7.1,0.1-19.8,4.8-26.6l0.3-0.5l0.7,0.7
		c1.1,1.1,2,2.3,2.8,3.4c3.4,4.8,6.8,10.1,10,15.3l0.8,1.1c2.3,3.3,3.8,6.3,4.5,9.3c2,8.1,6.5,13.7,10.2,17.6
		c3.6,4.2,6.6,8.1,9.5,12.3c0.5,0.7,1.1,1.4,1.7,2.2c0.6,0.8,1.1,1.5,1.7,2.2l0.4,0.5L396.4,280.3z"/>
	<path d="M402.8,277c-0.2-0.4-0.4-0.9-0.7-1.3c-2-3.3-4.4-6.4-6.7-9.5c-0.8-1.1-1.7-2.2-2.5-3.3c-0.7-1-1.5-2-2.2-3.1
		c-0.8-1-1.5-2.1-2.2-3.1c-0.4-0.6-0.8-1.1-1.3-1.6c-0.4-0.5-0.8-1-1.3-1.5c-1.2-1.4-2.4-2.8-3-4.1c-0.2-0.5-0.4-1-0.5-1.5
		c-1.2-7.4-5.1-13.3-9.1-18.9c-0.6-0.8-1.2-1.7-1.8-2.5c-3-4.1-6.1-8.3-8.3-12.9c-0.6-1.4-1.9-2.5-3.2-3.5l-0.3-0.3
		c-3.7-3.1-6.4-3.1-7.9-2.6c-1.1,0.2-3.7,1.1-5.4,5c-4,9.1-9,20.4-4.7,32.9c2.2,6.3,1.3,11.6-2.7,16.8c-4.8,6.4-8.5,12.3-11.4,18.2
		c-1.6,3.6-1.6,6.4,0.1,8.6c2,2,4.9,2.9,8.5,2.6l0,0c10.7-1.2,20.3-0.7,30.2,1.7l5.9,0.8c0.4,0,0.8,0,1.2,0.1l0.1,0.2
		c0.4,0.9,1.2,1.4,2.1,1.4h0.6l0.1,0c1.7-0.6,3.4-1.1,5-1.6c0.4-0.1,0.9-0.2,1.3-0.4c1-0.3,2-0.7,3-1c4.1-1.3,8.3-2.7,12.3-4.3
		c2.5-1,4.3-2.5,5.3-4.6c0.1-0.2,0.2-0.5,0.3-0.7C403.8,282.4,404.4,280.2,402.8,277z M402.6,282.7c-0.8,2.1-2.4,3.7-5,4.7
		c-4,1.6-8.2,2.9-12.2,4.3c-1,0.3-2,0.7-3,1c-0.4,0.1-0.9,0.2-1.3,0.4c-1.6,0.4-3.3,0.9-5,1.6h-0.5c-0.6,0-1-0.5-1.2-0.7v-0.5
		l-0.3-0.1c-0.7-0.3-1.3-0.3-1.8-0.3l-5.8-0.8c-9.9-2.4-19.6-2.9-30.5-1.7c-3.2,0.3-5.9-0.5-7.6-2.3c-1.4-1.9-1.4-4.4,0-7.5
		c2.9-5.8,6.6-11.7,11.3-18c4.2-5.3,5.1-11.1,2.9-17.7c-4.1-12.1,0.6-22.8,4.7-32.2c1.4-3.4,3.7-4.2,4.7-4.4c1.3-0.4,3.7-0.4,7,2.4
		l0.3,0.3c1.2,0.9,2.4,1.9,2.9,3.1c2.2,4.8,5.4,9,8.4,13.1c4.6,6.2,9.4,12.7,10.7,20.9c0.3,2.1,2,4.1,3.7,6.1
		c0.4,0.6,0.8,1.1,1.3,1.6c0.4,0.5,0.8,1,1.2,1.5c0.7,1,1.5,2,2.2,3.1c0.8,1,1.5,2.1,2.2,3c0.8,1.1,1.7,2.2,2.5,3.4
		c2.3,3,4.6,6.2,6.7,9.4C403.5,279.8,402.9,282.1,402.6,282.7z"/>
	<path d="M394.9,277.3c-0.6-0.8-1.1-1.5-1.7-2.2c-2.9-4.2-5.9-8.1-9.5-12.3c-3.7-3.9-8.1-9.4-10.2-17.6c-0.8-3-2.2-6.1-4.5-9.3
		l-0.8-1.1c-3.3-5.2-6.7-10.6-10-15.3c-0.8-1.1-1.7-2.2-2.8-3.4l-0.7-0.7l-0.3,0.5c-4.7,6.8-7,19.4-4.8,26.6
		c3,9.7,1.8,17.6-3.8,24.8c-2.8,3.1-5.1,6.8-7.3,10.3l-0.6,0.9l-2,4l0.7,0.1c1.7,0.1,3.3,0.3,5,0.6c1.6,0.2,3.3,0.4,5,0.6
		c9.4,1.1,18.7,2,27.8,2.8c0.7,0.1,1.5,0.1,2.2,0.1c5.6,0,11.6-1.9,19.8-6.3l0.5-0.3l-0.4-0.5C396,278.9,395.4,278.1,394.9,277.3z
		 M374.4,285.5c-9-0.8-18.3-1.7-27.7-2.8c-1.7-0.1-3.3-0.4-5-0.6c-1.4-0.2-2.8-0.4-4.3-0.5l1.3-2.6l0.6-0.9
		c2.2-3.5,4.4-7.2,7.2-10.2c5.8-7.5,7-15.7,4-25.7v0c-2.1-6.7,0-18.5,4.3-25.2c1,1,1.8,2.1,2.6,3.1c3.3,4.7,6.7,10.1,10,15.3
		l0.8,1.1c2.2,3.2,3.6,6.1,4.4,9c2.1,8.4,6.7,14,10.4,18c3.6,4.2,6.6,8,9.4,12.2c0.6,0.7,1.1,1.4,1.7,2.2c0.4,0.6,0.9,1.2,1.3,1.8
		C386.5,284.3,380.5,286,374.4,285.5z"/>
</g>
</svg>
